<?xml version="1.0" encoding="utf-8" ?>
<svg baseProfile="full" height="200mm" version="1.1" viewBox="0,0,200,200" width="200mm" xmlns="http://www.w3.org/2000/svg" xmlns:ev="http://www.w3.org/2001/xml-events" xmlns:xlink="http://www.w3.org/1999/xlink"><defs /><rect fill="#1a1a1a" height="200" width="200" x="0" y="0" /><text alignment-baseline="middle" fill="#e1ed5e" style="dominant-baseline: central; font-size:9.0px; font-family:Arial;" text-anchor="middle" x="100.0" y="100.0">2023</text><line stroke="#e1ed5e" stroke-width="0.3" x1="100.0" x2="100.0" y1="15.0" y2="10.0" /><path d="M 100.0 14.0 a86.0,86.0 0 0,1 42.46469731375804,11.215312516191453" fill="none" id="id145" stroke="none" /><text fill="#e1ed5e" style="font-size:6.75px; font-family:Arial;" text-anchor="middle"><textPath startOffset="22.20632615414155" xlink:href="#id145">January</textPath></text><path d="M 100.0 79.0 l 0.0 -55.55948275862069 a76.55948275862069,76.55948275862069 0 0,0 1.3178456438306227,0.011343113515168497 l -0.9563651645580945 55.55125102171408" fill="#3fffbf" stroke="none" /><path d="M 100.72285384407766 79.0124445844662 l 1.5292097701436025 -44.39953533596547 a65.42586206896551,65.42586206896551 0 0,0 1.1251976135732378,0.04845337615651734 l -2.293248216106172 44.366634233284756" fill="#57ff2a" stroke="none" /><path d="M 101.80526077348638 79.07773832637324 l 2.950667609077732 -34.1970759768934 a55.324137931034485,55.324137931034485 0 0,0 0.9480841479415636,0.09003201376001327 l -3.53887688410954 34.14121841861821" fill="#fffd17" stroke="none" /><path d="M 102.52436894288641 79.15227682838746 l 7.57310682865922 -62.54316951483763 a84.0,84.0 0 0,0 1.4339410859686157,0.1861667073434532 l -8.648562643135682 62.40354448433004" fill="#4dd2ff" stroke="none" /><path d="M 103.95276090670814 79.375362276772 l 11.020024803701801 -57.50006758355121 a79.54655172413794,79.54655172413794 0 0,0 1.3425699972426306,0.26930691120409195 l -12.008161210411558 57.30185671626991" fill="#45ffed" stroke="none" /><path d="M 104.307194497241 79.44645832069477 l 9.813719876041354 -46.830181602072145 a68.84741379310344,68.84741379310344 0 0,0 1.1578078621070114,0.2530519540874175 l -10.618370462301893 46.65431614988886" fill="#31ff3d" stroke="none" /><path d="M 105.01212808612495 79.60689891045804 l 11.095814590662824 -45.14610654995151 a67.48965517241379,67.48965517241379 0 0,0 1.1257631577432987,0.28698209507108674 l -11.871286637091147 44.94842145871155" fill="#38ff2e" stroke="none" /><path d="M 106.0581310904928 79.89281104454417 l 13.724800436047456 -45.55318325425682 a68.57586206896552,68.57586206896552 0 0,0 1.1273043173894821,0.3502589388491483 l -14.506890126147658 45.31018418052515" fill="#30ff38" stroke="none" /><path d="M 109.41281617654863 81.2277094730956 l 16.821351667228704 -33.54737781230415 a58.52844827586207,58.52844827586207 0 0,0 0.8967102100220287,0.45932979798679807 l -17.396322364839488 33.25285548900485" fill="#c8ff1d" stroke="none" /><line stroke="#e1ed5e" stroke-width="0.3" x1="143.23703022742887" x2="145.7803849466894" y1="26.81831364943548" y2="22.513508569990506" /><path d="M 143.74570117128098 25.957352633546492 a86.0,86.0 0 0,1 28.547481713284135,27.462654790039103" fill="none" id="id146" stroke="none" /><text fill="#e1ed5e" style="font-size:6.75px; font-family:Arial;" text-anchor="middle"><textPath startOffset="19.985693538727396" xlink:href="#id146">February</textPath></text><path d="M 114.16331599549186 84.49514656593476 l 29.889480652555225 -32.720587247061815 a65.31724137931035,65.31724137931035 0 0,0 0.823594789024304,0.7654415977954285 l -30.448283325374376 32.201241063191745" fill="#59ff2a" stroke="none" /><path d="M 115.9244219780498 86.31012108654704 l 21.40901255448986 -18.404862037162207 a49.23268965517241,49.23268965517241 0 0,0 0.5469268555254438,0.6473888873315965 l -21.72265002350242 18.033614200201505" fill="#ff880c" stroke="none" /><path d="M 116.38621287248628 86.86637796730983 l 31.014015591207833 -24.857870556217176 a60.74648275862069,60.74648275862069 0 0,0 0.6469382374873636,0.8215458640023281 l -31.43730790928916 24.32033229826181" fill="#a2ff22" stroke="none" /><path d="M 117.65298651832404 88.62581576622439 l 18.280884987070632 -11.778752200573525 a42.74694827586207,42.74694827586207 0 0,0 0.3932157500760989,0.621972885653753 l -18.480928333392686 11.462331667205566" fill="#ff0000" stroke="none" /><line stroke="#e1ed5e" stroke-width="0.3" x1="172.23445277983987" x2="176.4835382374775" y1="55.19839476539836" y2="52.563006222186495" /><path d="M 173.08426987136738 54.67131705675599 a86.0,86.0 0 0,1 12.851231095245387,41.99856678651699" fill="none" id="id147" stroke="none" /><text fill="#e1ed5e" style="font-size:6.75px; font-family:Arial;" text-anchor="middle"><textPath startOffset="22.20632615414155" xlink:href="#id147">March</textPath></text><path d="M 118.73160827565052 90.50648371742162 l 27.96128529471393 -14.171282749503673 a52.347387931034476,52.347387931034476 0 0,0 0.40043255805544276,0.8072476023138719 l -28.201077865722784 13.687875558690852" fill="#ffc512" stroke="none" /><path d="M 120.6074358757038 95.95851677861258 l 32.05006994630687 -6.285586460807996 a53.66061206896551,53.66061206896551 0 0,0 0.16996175077719566,0.9079424688038301 l -32.15351742099393 5.7329659145416025" fill="#ffde14" stroke="none" /><line stroke="#e1ed5e" stroke-width="0.3" x1="184.98032266829074" x2="189.97916517819016" y1="98.17113171792111" y2="98.06355123074" /><path d="M 185.9800911702706 98.14961562048488 a86.0,86.0 0 0,1 -9.607161424134198,41.387399972396054" fill="none" id="id148" stroke="none" /><text fill="#e1ed5e" style="font-size:6.75px; font-family:Arial;" text-anchor="middle"><textPath startOffset="21.466115282336823" xlink:href="#id148">April</textPath></text><line stroke="#e1ed5e" stroke-width="0.3" x1="174.80103733775053" x2="179.2010983576182" y1="140.37084112569926" y2="142.7455964860345" /><path d="M 175.68104954172406 140.8457921977663 a86.0,86.0 0 0,1 -30.038265399797805,32.042727171017184" fill="none" id="id149" stroke="none" /><text fill="#e1ed5e" style="font-size:6.75px; font-family:Arial;" text-anchor="middle"><textPath startOffset="22.206326154141568" xlink:href="#id149">May</textPath></text><path d="M 113.20401910651253 116.32954008644616 l 20.625588466379916 25.50786779020728 a53.80344827586207,53.80344827586207 0 0,0 -0.7251744238310625,0.5761224203247979 l -20.1834565498315 -25.8591241245372" fill="#ffe115" stroke="none" /><line stroke="#e1ed5e" stroke-width="0.3" x1="143.8653032363475" x2="146.44561519142675" y1="172.8068346515853" y2="177.08958963109032" /><path d="M 144.38136562736335 173.6633856474863 a86.0,86.0 0 0,1 -40.68145358897372,12.25698825130547" fill="none" id="id150" stroke="none" /><text fill="#e1ed5e" style="font-size:6.75px; font-family:Arial;" text-anchor="middle"><textPath startOffset="21.466115282336833" xlink:href="#id150">June</textPath></text><path d="M 107.2578585660854 119.70592522655815 l 14.822924766304249 40.24595470193009 a63.88887931034483,63.88887931034483 0 0,0 -1.035244567742761,0.37120186975506614 l -14.127960637931753 -40.495144112725114" fill="#6fff27" stroke="none" /><path d="M 106.91757812671514 119.82793768551818 l 9.989221352153445 28.632225739877423 a51.32472413793104,51.32472413793104 0 0,0 -0.8366669771933851,0.2838428647455771 l -9.494884642022834 -28.799931591521123" fill="#ffb210" stroke="none" /><path d="M 106.2309692047433 120.05430185196036 l 8.418415402370563 27.094571975386067 a49.37226724137932,49.37226724137932 0 0,0 -0.8137608219459729,0.2451794602705104 l -7.950779605984345 -27.235466804762304" fill="#ff8b0c" stroke="none" /><path d="M 105.53697534728816 120.25689768951611 l 7.304941122186486 26.72496004746428 a48.705336206896554,48.705336206896554 0 0,0 -0.8106181185899789,0.21409161271304372 l -6.8438325607850095 -26.846743009480907" fill="#ff7e0b" stroke="none" /><line stroke="#e1ed5e" stroke-width="0.3" x1="102.19456741930631" x2="102.32365962044197" y1="184.97166512339345" y2="189.96999836594603" /><path d="M 102.22038585953345 185.97133177190398 a86.0,86.0 0 0,1 -42.740103519485714,-10.115201625700543" fill="none" id="id151" stroke="none" /><text fill="#e1ed5e" style="font-size:6.75px; font-family:Arial;" text-anchor="middle"><textPath startOffset="22.20632615414155" xlink:href="#id151">July</textPath></text><line stroke="#e1ed5e" stroke-width="0.3" x1="58.666819895761336" x2="56.23545636021788" y1="174.27360380694188" y2="178.64263932499728" /><path d="M 58.180547188652646 175.14741091055294 a86.0,86.0 0 0,1 -31.652253787137756,-30.449443065178592" fill="none" id="id152" stroke="none" /><text fill="#e1ed5e" style="font-size:6.75px; font-family:Arial;" text-anchor="middle"><textPath startOffset="22.20632615414155" xlink:href="#id152">August</textPath></text><line stroke="#e1ed5e" stroke-width="0.3" x1="26.63291911575756" x2="22.317208475507996" y1="142.92168965132927" y2="145.44649492493687" /><path d="M 25.769776987707644 143.4266507060508 a86.0,86.0 0 0,1 -11.730757126820373,-40.83630448921669" fill="none" id="id153" stroke="none" /><text fill="#e1ed5e" style="font-size:6.75px; font-family:Arial;" text-anchor="middle"><textPath startOffset="21.46611528233685" xlink:href="#id153">September</textPath></text><line stroke="#e1ed5e" stroke-width="0.3" x1="15.007084014347285" x2="10.007500721073583" y1="101.09737516637583" y2="101.16192664675087" /><path d="M 14.007167355692545 101.11028546245083 a86.0,86.0 0 0,1 10.666146001902534,-42.60595125391555" fill="none" id="id154" stroke="none" /><text fill="#e1ed5e" style="font-size:6.75px; font-family:Arial;" text-anchor="middle"><textPath startOffset="22.20632615414155" xlink:href="#id154">October</textPath></text><line stroke="#e1ed5e" stroke-width="0.3" x1="26.266209847984243" x2="21.928928074336255" y1="57.711370442889674" y2="55.22380399835377" /><path d="M 25.398753493254645 57.213857153982495 a86.0,86.0 0 0,1 29.58750427330803,-30.492523968695096" fill="none" id="id155" stroke="none" /><text fill="#e1ed5e" style="font-size:6.75px; font-family:Arial;" text-anchor="middle"><textPath startOffset="21.46611528233685" xlink:href="#id155">November</textPath></text><line stroke="#e1ed5e" stroke-width="0.3" x1="56.762969772571076" x2="54.21961505331055" y1="26.818313649435495" y2="22.513508569990535" /><path d="M 56.25429882871897 25.957352633546506 a86.0,86.0 0 0,1 42.265352541879196,-11.944610805530505" fill="none" id="id156" stroke="none" /><text fill="#e1ed5e" style="font-size:6.75px; font-family:Arial;" text-anchor="middle"><textPath startOffset="22.20632615414155" xlink:href="#id156">December</textPath></text></svg>