<?xml version="1.0" encoding="utf-8" ?>
<svg baseProfile="full" height="200mm" version="1.1" viewBox="0,0,200,200" width="200mm" xmlns="http://www.w3.org/2000/svg" xmlns:ev="http://www.w3.org/2001/xml-events" xmlns:xlink="http://www.w3.org/1999/xlink"><defs /><rect fill="#1a1a1a" height="200" width="200" x="0" y="0" /><text alignment-baseline="middle" fill="#e1ed5e" style="dominant-baseline: central; font-size:9.0px; font-family:Arial;" text-anchor="middle" x="100.0" y="100.0">2016</text><line stroke="#e1ed5e" stroke-width="0.3" x1="100.0" x2="100.0" y1="15.0" y2="10.0" /><path d="M 100.0 14.0 a86.0,86.0 0 0,1 42.35913384403234,11.155469271406648" fill="none" id="id61" stroke="none" /><text fill="#e1ed5e" style="font-size:6.75px; font-family:Arial;" text-anchor="middle"><textPath startOffset="22.145653131862478" xlink:href="#id61">January</textPath></text><path d="M 102.15924093988457 79.11130261209362 l 0.451270064414236 -4.365628514006373 a25.388890177862955,25.388890177862955 0 0,0 0.43313942137754574,0.048534175607730747 l -0.5261453873925784 4.357238577891671" fill="#ff0701" stroke="none" /><path d="M 102.51750503828377 79.15144685158666 l 1.045894882345328 -8.661509991294881 a29.72442843023067,29.72442843023067 0 0,0 0.5060543997822545,0.06551887361385314 l -1.1944271040183743 8.642279521480631" fill="#ff4806" stroke="none" /><path d="M 102.87502721639298 79.19773525538626 l 1.7590118860591935 -12.727333756733415 a33.84831301652413,33.84831301652413 0 0,0 0.574897308120327,0.08449010661760298 l -1.9772342997872026 12.69526257681693" fill="#ff830c" stroke="none" /><path d="M 104.64783097203109 79.52079915486377 l 1.6387096471320295 -7.220457067485354 a28.40407790146773,28.40407790146773 0 0,0 0.47457512563297666,0.11199843744830944 l -1.762416926504891 7.191262486390817" fill="#ff3405" stroke="none" /><path d="M 104.9986988182912 79.60360301121754 l 1.7528139914609584 -7.1520792344019535 a28.363735075613796,28.363735075613796 0 0,0 0.4719113761798418,0.11995802642983457 l -1.8753306608661946 7.120935976136851" fill="#ff3404" stroke="none" /><path d="M 109.71004243097381 81.37971332152246 l 3.5444991386430162 -6.797044458077679 a28.665721590882725,28.665721590882725 0 0,0 0.4343692006555991,0.2312771334065808 l -3.660657155085175 6.735196856948526" fill="#ff3805" stroke="none" /><line stroke="#e1ed5e" stroke-width="0.3" x1="143.13028292997686" x2="145.6673583964461" y1="26.7553504044142" y2="22.446841604673864" /><path d="M 143.63769802327073 25.89364864446614 a86.0,86.0 0 0,1 29.32050498858742,28.57503671076993" fill="none" id="id62" stroke="none" /><text fill="#e1ed5e" style="font-size:6.75px; font-family:Arial;" text-anchor="middle"><textPath startOffset="20.669276256404974" xlink:href="#id62">February</textPath></text><path d="M 111.5731344415666 82.4767994020092 l 9.206474820713902 -13.939776289497848 a37.7055841450003,37.7055841450003 0 0,0 0.5370419132019265,0.3613457666213354 l -9.44441302201283 13.779680848819392" fill="#ffb811" stroke="none" /><path d="M 113.03279911837588 83.53348406188908 l 6.939551419864011 -8.767896521739 a32.18183273550716,32.18183273550716 0 0,0 0.43023927376426313,0.34657030390429006 l -7.089041463983533 8.647477924041302" fill="#ff6b09" stroke="none" /><path d="M 115.16444852881244 85.47280134310134 l 5.317053104994346 -5.09361659797738 a28.36315039697823,28.36315039697823 0 0,0 0.33379938845115487,0.35448338307455374 l -5.403708327181761 5.001591754958333" fill="#ff3404" stroke="none" /><path d="M 115.41159269507618 85.73525988315684 l 5.550563385344938 -5.137518604375452 a28.563256660000093,28.563256660000093 0 0,0 0.32997674938855126,0.36270225099638587 l -5.637937835575367 5.0414787778213945" fill="#ff3705" stroke="none" /><path d="M 115.6541949942343 86.00192230759917 l 5.639027439547997 -5.042453108412552 a28.564718356589005,28.564718356589005 0 0,0 0.32371842523843547,0.36833214374964496 l -5.724756928745022 4.944908686851609" fill="#ff3705" stroke="none" /><path d="M 115.8921839302757 86.27271002978787 l 11.913551793765919 -10.290642290932025 a36.742618432226,36.742618432226 0 0,0 0.40820250624867205,0.4808615259503366 l -12.088448863521704 10.084613982532137" fill="#ffab0f" stroke="none" /><path d="M 116.7966241395341 87.39550010848427 l 5.9846201195246325 -4.490970508160898 a28.482278668974445,28.482278668974445 0 0,0 0.29010961356877685,0.3935894079705756 l -6.060831752677235 4.387574790921448" fill="#ff3505" stroke="none" /><path d="M 117.01052211995028 87.68569379921539 l 6.080841531461788 -4.402060327651326 a28.506981341327034,28.506981341327034 0 0,0 0.283556094699588,0.39885715789757775 l -6.155512724691336 4.297025943044244" fill="#ff3605" stroke="none" /><path d="M 117.42321728460499 88.27688183743584 l 12.150402591225465 -8.175333118615308 a35.64473812429525,35.64473812429525 0 0,0 0.33722563554134316,0.5106025932915662 l -12.288952665687532 7.965550646984683" fill="#ff9c0e" stroke="none" /><line stroke="#e1ed5e" stroke-width="0.3" x1="172.87174338648825" x2="177.1583165268699" y1="56.24261187166439" y2="53.66864786411523" /><path d="M 173.72905801456457 55.72781907015455 a86.0,86.0 0 0,1 12.242430191666344,42.057860355516425" fill="none" id="id63" stroke="none" /><text fill="#e1ed5e" style="font-size:6.75px; font-family:Arial;" text-anchor="middle"><textPath startOffset="22.145653131862474" xlink:href="#id63">March</textPath></text><path d="M 118.00360718960297 89.18935116829356 l 8.258528126868804 -4.959008853398444 a30.633019029897497,30.633019029897497 0 0,0 0.26683735803158914,0.45314817015613856 l -8.342439195030162 4.816509514948749" fill="#ff5507" stroke="none" /><path d="M 118.70294669586156 90.45014215332178 l 38.26218134861798 -19.536942425440223 a63.96145529296576,63.96145529296576 0 0,0 0.490919662629706,0.982168179304187 l -38.59192092445942 18.877242389972285" fill="#33ff51" stroke="none" /><path d="M 118.8641267826498 90.77261029715802 l 14.732065174636961 -7.2061913101151704 a37.40008955791799,37.40008955791799 0 0,0 0.27715379473185453,0.5791448355181142 l -14.853598227328728 6.952233972531953" fill="#ffb410" stroke="none" /><path d="M 119.83427380445688 93.10060997987247 l 15.702589779210019 -5.462175841723725 a37.625483171928,37.625483171928 0 0,0 0.20696627746387328,0.6118590238244773 l -15.794041478246257 5.191815143425085" fill="#ffb711" stroke="none" /><path d="M 120.05942366710727 93.78553927170692 l 8.55092005896426 -2.6490968922672966 a29.951868419465157,29.951868419465157 0 0,0 0.14793895310638402,0.4924406603542795 l -8.595135332074271 2.5019186283222936" fill="#ff4b07" stroke="none" /><path d="M 120.26092885502905 94.47779374421319 l 7.73101153927806 -2.107121573311507 a29.013020700407885,29.013020700407885 0 0,0 0.12684288066321694,0.48164307824751196 l -7.766043900746007 1.9740979906911966" fill="#ff3d05" stroke="none" /><path d="M 120.51834098615036 95.52812308129327 l 61.555022958451104 -13.415630756120196 a84.0,84.0 0 0,0 0.29496915670253276,1.4115341948583824 l -61.776249825978 12.35698010997641" fill="#4dd2ff" stroke="none" /><path d="M 120.82617615685814 97.30363454192243 l 12.495386782631892 -1.6177779853702394 a33.59967842675044,33.59967842675044 0 0,0 0.06914800018811144,0.5726446362987606 l -12.521316869079666 1.4030396721480658" fill="#ff800b" stroke="none" /><path d="M 120.98066250479742 99.09900007780936 l 3.9352067895814176 -0.1689947116973167 a24.93883379813738,24.93883379813738 0 0,0 0.014696470199311085,0.42787169459740443 l -3.9375279467775766 0.10141675253579231" fill="#ff0000" stroke="none" /><line stroke="#e1ed5e" stroke-width="0.3" x1="184.99686870605535" x2="189.99668451229388" y1="99.2704041080226" y2="99.22748670261217" /><path d="M 185.99683186730306 99.26182062694052 a86.0,86.0 0 0,1 -10.086455211305974,41.156179273409016" fill="none" id="id64" stroke="none" /><text fill="#e1ed5e" style="font-size:6.75px; font-family:Arial;" text-anchor="middle"><textPath startOffset="21.40746469413373" xlink:href="#id64">April</textPath></text><path d="M 120.82617615685814 102.69636545807757 l 21.957925362080175 2.8428930511020156 a43.141195250182136,43.141195250182136 0 0,0 -0.10139307371232421,0.7336297724791904 l -21.905887771812644 -3.219411131781291" fill="#feff18" stroke="none" /><path d="M 119.4528033332814 107.91128576633889 l 29.026473282777033 11.80481398977438 a52.33512062477089,52.33512062477089 0 0,0 -0.3455966025581553,0.8293060361139539 l -28.819550835682392 -12.30135253532961" fill="#8fff24" stroke="none" /><path d="M 118.8641267826498 109.22738970284198 l 6.996086387891219 3.4221364306772473 a28.788211765033434,28.788211765033434 0 0,0 -0.22095649860795796,0.4420610101064451 l -6.936309976071528 -3.5417292969474383" fill="#ff3a05" stroke="none" /><line stroke="#e1ed5e" stroke-width="0.3" x1="174.33088141563837" x2="178.70328620479359" y1="141.23008692659167" y2="143.65538615756765" /><path d="M 175.20536237346943 141.71514677278685 a86.0,86.0 0 0,1 -30.301960400862466,31.631185727798858" fill="none" id="id65" stroke="none" /><text fill="#e1ed5e" style="font-size:6.75px; font-family:Arial;" text-anchor="middle"><textPath startOffset="22.145653131862474" xlink:href="#id65">May</textPath></text><path d="M 118.18653347947321 110.5 l 34.130922233585835 19.705497139250955 a60.410994278501924,60.410994278501924 0 0,0 -0.5262266214637299,0.8936478473734139 l -33.78762190199234 -20.288496154917915" fill="#38ff2e" stroke="none" /><path d="M 115.41159269507618 114.26474011684316 l 23.108700028946476 21.389067753933265 a52.48816025762983,52.48816025762983 0 0,0 -0.6177210764566428,0.6559983767341329 l -22.738123118753574 -21.782607590611892" fill="#8eff24" stroke="none" /><path d="M 113.59037401385872 116.0094264158162 l 22.80824007074751 26.868049452836665 a56.24355113385893,56.24355113385893 0 0,0 -0.7414123091300001,0.6185125175187828 l -22.343653427455614 -27.255624154267316" fill="#64ff29" stroke="none" /><line stroke="#e1ed5e" stroke-width="0.3" x1="143.1302829299769" x2="145.66735839644613" y1="173.24464959558577" y2="177.55315839532614" /><path d="M 143.63769802327073 174.10635135553383 a86.0,86.0 0 0,1 -40.68552437913181,11.842963189579606" fill="none" id="id66" stroke="none" /><text fill="#e1ed5e" style="font-size:6.75px; font-family:Arial;" text-anchor="middle"><textPath startOffset="21.407464694133747" xlink:href="#id66">June</textPath></text><line stroke="#e1ed5e" stroke-width="0.3" x1="101.45913802915013" x2="101.54496967792366" y1="184.9874750549273" y2="189.98673829345242" /><path d="M 101.47630435890484 185.9873277026323 a86.0,86.0 0 0,1 -42.54439059252881,-10.42667462771756" fill="none" id="id67" stroke="none" /><text fill="#e1ed5e" style="font-size:6.75px; font-family:Arial;" text-anchor="middle"><textPath startOffset="22.145653131862474" xlink:href="#id67">July</textPath></text><line stroke="#e1ed5e" stroke-width="0.3" x1="58.13341422392154" x2="55.67067388415222" y1="173.97424548756322" y2="178.32567169271397" /><path d="M 57.64086615596768 174.84453072859336 a86.0,86.0 0 0,1 -31.369924170532247,-30.572349798747897" fill="none" id="id68" stroke="none" /><text fill="#e1ed5e" style="font-size:6.75px; font-family:Arial;" text-anchor="middle"><textPath startOffset="22.145653131862474" xlink:href="#id68">August</textPath></text><line stroke="#e1ed5e" stroke-width="0.3" x1="26.387840678322732" x2="22.057713659400548" y1="142.50000000000003" y2="145.00000000000006" /><path d="M 25.521815274538298 143.00000000000003 a86.0,86.0 0 0,1 -11.493303480769221,-40.785679425670985" fill="none" id="id69" stroke="none" /><text fill="#e1ed5e" style="font-size:6.75px; font-family:Arial;" text-anchor="middle"><textPath startOffset="21.40746469413373" xlink:href="#id69">September</textPath></text><line stroke="#e1ed5e" stroke-width="0.3" x1="15.003131293944662" x2="10.003315487706104" y1="100.72959589197737" y2="100.7725132973878" /><path d="M 14.003168132696942 100.73817937305945 a86.0,86.0 0 0,1 10.791469493833604,-42.45332614584628" fill="none" id="id70" stroke="none" /><text fill="#e1ed5e" style="font-size:6.75px; font-family:Arial;" text-anchor="middle"><textPath startOffset="22.145653131862435" xlink:href="#id70">October</textPath></text><path d="M 79.407916724674 95.88100663000787 l -7.363311142559428 -1.4728684500675568 a28.5091738862104,28.5091738862104 0 0,0 0.10011103547025418,-0.4790675453279653 l 7.336942396264806 1.5990524466809313" fill="#ff3605" stroke="none" /><path d="M 79.73907114497095 94.47779374421319 l -4.102569439787267 -1.1181735441299716 a25.252221546799813,25.252221546799813 0 0,0 0.11758096672918171,-0.41725337050405387 l 4.082769980983503 1.1884348385370387" fill="#ff0500" stroke="none" /><path d="M 80.16572619554312 93.10060997987247 l -7.059338547842247 -2.455604394991258 a28.474239337735437,28.474239337735437 0 0,0 0.16455375448360166,-0.46028613803830676 l 7.016144623314702 2.576425489410486" fill="#ff3505" stroke="none" /><path d="M 80.68587082218212 91.75594674310238 l -7.073981410955602 -3.0194620194007893 a28.69144745084755,28.69144745084755 0 0,0 0.1972415660853692,-0.4513273031451172 l 7.021105962853255 3.1404513923217734" fill="#ff3905" stroke="none" /><line stroke="#e1ed5e" stroke-width="0.3" x1="26.387840678322718" x2="22.05771365940052" y1="57.49999999999999" y2="54.99999999999999" /><path d="M 25.521815274538284 56.99999999999999 a86.0,86.0 0 0,1 29.574782752854787,-30.34633250058573" fill="none" id="id71" stroke="none" /><text fill="#e1ed5e" style="font-size:6.75px; font-family:Arial;" text-anchor="middle"><textPath startOffset="21.40746469413373" xlink:href="#id71">November</textPath></text><line stroke="#e1ed5e" stroke-width="0.3" x1="56.869717070023135" x2="54.33264160355391" y1="26.7553504044142" y2="22.446841604673864" /><path d="M 56.362301976729285 25.89364864446614 a86.0,86.0 0 0,1 42.16139366436587,-11.88097634709845" fill="none" id="id72" stroke="none" /><text fill="#e1ed5e" style="font-size:6.75px; font-family:Arial;" text-anchor="middle"><textPath startOffset="22.145653131862474" xlink:href="#id72">December</textPath></text><path d="M 92.25597844496254 80.48000691201159 l -7.577051275479961 -19.099118910444062 a41.54721511997513,41.54721511997513 0 0,0 0.6652060066420887,-0.2573159736217551 l 7.248073006344343 19.226374772203858" fill="#ffeb16" stroke="none" /><path d="M 92.592206182469 80.34994680014964 l -3.70697342067795 -9.833187413284563 a31.508721456313832,31.508721456313832 0 0,0 0.5077568170630941,-0.18645533639032325 l 3.537627451960729 9.895373598683607" fill="#ff6209" stroke="none" /><path d="M 94.6519064749342 79.69241777938228 l -3.7735920392498343 -14.32894362167901 a35.81751066110449,35.81751066110449 0 0,0 0.5959261254682618,-0.1514820907430472 l 3.527060620556194 14.39161094425732" fill="#ff9e0e" stroke="none" /><path d="M 95.00130118170881 79.60360301121753 l -2.4796100426663994 -10.117655143080793 a31.41707308018914,31.41707308018914 0 0,0 0.5249162270210449,-0.12387880030418137 l 2.3055616619054486 10.158730087031206" fill="#ff6008" stroke="none" /><path d="M 97.12497278360702 79.19773525538626 l -1.1848215783607148 -8.57277872280905 a29.654266993962963,29.654266993962963 0 0,0 0.5048599107577892,-0.06536422309513645 l 1.0374838457121316 8.591854542104581" fill="#ff4706" stroke="none" /></svg>