<?xml version="1.0" encoding="utf-8" ?>
<svg baseProfile="full" height="200mm" version="1.1" viewBox="0,0,200,200" width="200mm" xmlns="http://www.w3.org/2000/svg" xmlns:ev="http://www.w3.org/2001/xml-events" xmlns:xlink="http://www.w3.org/1999/xlink"><defs /><rect fill="#1a1a1a" height="200" width="200" x="0" y="0" /><text alignment-baseline="middle" fill="#e1ed5e" style="dominant-baseline: central; font-size:9.0px; font-family:Arial;" text-anchor="middle" x="100.0" y="100.0">2024</text><line stroke="#e1ed5e" stroke-width="0.3" x1="100.0" x2="100.0" y1="15.0" y2="10.0" /><path d="M 100.0 14.0 a86.0,86.0 0 0,1 42.35913384403234,11.155469271406648" fill="none" id="id157" stroke="none" /><text fill="#e1ed5e" style="font-size:6.75px; font-family:Arial;" text-anchor="middle"><textPath startOffset="22.145653131862478" xlink:href="#id157">January</textPath></text><line stroke="#e1ed5e" stroke-width="0.3" x1="143.13028292997686" x2="145.6673583964461" y1="26.7553504044142" y2="22.446841604673864" /><path d="M 143.63769802327073 25.89364864446614 a86.0,86.0 0 0,1 29.32050498858742,28.57503671076993" fill="none" id="id158" stroke="none" /><text fill="#e1ed5e" style="font-size:6.75px; font-family:Arial;" text-anchor="middle"><textPath startOffset="20.669276256404974" xlink:href="#id158">February</textPath></text><line stroke="#e1ed5e" stroke-width="0.3" x1="172.87174338648825" x2="177.1583165268699" y1="56.24261187166439" y2="53.66864786411523" /><path d="M 173.72905801456457 55.72781907015455 a86.0,86.0 0 0,1 12.242430191666344,42.057860355516425" fill="none" id="id159" stroke="none" /><text fill="#e1ed5e" style="font-size:6.75px; font-family:Arial;" text-anchor="middle"><textPath startOffset="22.145653131862474" xlink:href="#id159">March</textPath></text><path d="M 118.53625476483649 90.13048839642627 l 12.19046117553848 -6.490733945517893 a34.81075562102991,34.81075562102991 0 0,0 0.2763177178528942,0.5298756578396866 l -12.30008696236632 6.280512044573708" fill="#ff880c" stroke="none" /><path d="M 118.8641267826498 90.77261029715802 l 10.38621381031183 -5.080417634434723 a32.56218321312145,32.56218321312145 0 0,0 0.24130243400339324,0.5042292803034597 l -10.471895502275133 4.90137585206616" fill="#ff6809" stroke="none" /><path d="M 119.0197475246899 91.09779779509293 l 10.483755189213932 -4.906926784384217 a32.575277678512826,32.575277678512826 0 0,0 0.23270465302082857,0.5085016633539319 l -10.566444307089812 4.7262361388156" fill="#ff6809" stroke="none" /><line stroke="#e1ed5e" stroke-width="0.3" x1="184.99686870605535" x2="189.99668451229388" y1="99.2704041080226" y2="99.22748670261217" /><path d="M 185.99683186730306 99.26182062694052 a86.0,86.0 0 0,1 -10.086455211305974,41.156179273409016" fill="none" id="id160" stroke="none" /><text fill="#e1ed5e" style="font-size:6.75px; font-family:Arial;" text-anchor="middle"><textPath startOffset="21.40746469413373" xlink:href="#id160">April</textPath></text><path d="M 120.82617615685814 102.69636545807757 l 11.398131474787725 1.4757163179532478 a32.49326497421947,32.49326497421947 0 0,0 -0.0763676572143932,0.5525583250974493 l -11.371119301018123 -1.6711629512507822" fill="#ff6709" stroke="none" /><path d="M 120.77682067341334 103.0534771498775 l 14.46448195716157 2.1257807359104497 a35.6198557457391,35.6198557457391 0 0,0 -0.09410173557256016,0.604200646406152 l -14.425858729450743 -2.373769564248052" fill="#ff940d" stroke="none" /><path d="M 120.65975698304385 103.76489593502545 l 11.30705053852876 2.060521265790917 a32.49326497421947,32.49326497421947 0 0,0 -0.10471141507922291,0.5478943705268552 l -11.270012831167376 -2.2543182013510865" fill="#ff6709" stroke="none" /><path d="M 120.51834098615036 104.47187691870673 l 14.960376881408575 3.2605445107029873 a36.31156513685193,36.31156513685193 0 0,0 -0.13796516656010369,0.6078999801454343 l -14.902200853290806 -3.5168788247874385" fill="#ff9d0e" stroke="none" /><path d="M 120.43855184770803 104.8234425847677 l 11.22734866465616 2.6496237143733956 a32.53576455487569,32.53576455487569 0 0,0 -0.1329511634827291,0.5424861167053319 l -11.180209974657135 -2.841965655686827" fill="#ff6809" stroke="none" /><path d="M 120.16314734710363 105.8691983318838 l 11.05290273663785 3.2173388999047963 a32.511643171260005,32.511643171260005 0 0,0 -0.16058225106914054,0.534526087262501 l -10.996044165565081 -3.4066025907580206" fill="#ff6709" stroke="none" /><path d="M 119.83427380445688 106.89939002012753 l 10.859604473994127 3.7775341547201644 a32.497859523479605,32.497859523479605 0 0,0 -0.18780641455739547,0.5253279666983186 l -10.793157889392788 -3.9633970777994048" fill="#ff6709" stroke="none" /><path d="M 119.71291397450082 107.23885506374661 l 10.851382717167736 3.984778041056265 a32.559885938491384,32.559885938491384 0 0,0 -0.19717230618465523,0.5230229676339676 l -10.78137972716864 -4.170469288884392" fill="#ff6809" stroke="none" /><path d="M 119.4528033332814 107.91128576633889 l 15.937809920355056 6.481768545605832 a38.20543834187822,38.20543834187822 0 0,0 -0.2522908045796827,0.605406087748705 l -15.824193271238887 -6.754407142795815" fill="#ffb811" stroke="none" /><path d="M 119.16976305983485 108.57439118712176 l 10.508775222118494 4.700441490629078 a32.512102626186014,32.512102626186014 0 0,0 -0.23225335591212531,0.507515497725263 l -10.426537401351313 -4.88014597056903" fill="#ff6709" stroke="none" /><path d="M 118.70294669586154 109.54985784667822 l 10.30647361259923 5.262558863125118 a32.572291221493735,32.572291221493735 0 0,0 -0.2585494343629095,0.4958026314116521 l -10.214616109261371 -5.438707737641273" fill="#ff6809" stroke="none" /><path d="M 118.5362547648365 109.86951160357373 l 20.37265783700681 10.847292803690022 a44.08048848080864,44.08048848080864 0 0,0 -0.3613648134856519,0.6648705554464078 l -20.183447673905818 -11.195418192611035" fill="#f9ff18" stroke="none" /><line stroke="#e1ed5e" stroke-width="0.3" x1="174.33088141563837" x2="178.70328620479359" y1="141.23008692659167" y2="143.65538615756765" /><path d="M 175.20536237346943 141.71514677278685 a86.0,86.0 0 0,1 -30.301960400862466,31.631185727798858" fill="none" id="id161" stroke="none" /><text fill="#e1ed5e" style="font-size:6.75px; font-family:Arial;" text-anchor="middle"><textPath startOffset="22.145653131862474" xlink:href="#id161">May</textPath></text><path d="M 116.1254893667686 113.45245675266167 l 8.848738660752847 7.381932507096189 a32.52358899933634,32.52358899933634 0 0,0 -0.36133000608597016,0.4256458386178957 l -8.720714091159762 -7.532745128163642" fill="#ff6709" stroke="none" /><path d="M 111.5731344415666 117.5232005979908 l 5.072356472130402 7.680194195828087 a30.204030805358848,30.204030805358848 0 0,0 -0.43510253725585407,0.28202820788952554 l -4.939768302617539 -7.7661362454215075" fill="#ff4506" stroke="none" /><path d="M 110.96478420261333 117.91015095944535 l 5.169767127086338 8.444426079012697 a30.901253655583837,30.901253655583837 0 0,0 -0.4547888231547968,0.27308762116021323 l -5.024045547374104 -8.531927700708833" fill="#ff5007" stroke="none" /><line stroke="#e1ed5e" stroke-width="0.3" x1="143.1302829299769" x2="145.66735839644613" y1="173.24464959558577" y2="177.55315839532614" /><path d="M 143.63769802327073 174.10635135553383 a86.0,86.0 0 0,1 -40.68552437913181,11.842963189579606" fill="none" id="id162" stroke="none" /><text fill="#e1ed5e" style="font-size:6.75px; font-family:Arial;" text-anchor="middle"><textPath startOffset="21.407464694133747" xlink:href="#id162">June</textPath></text><path d="M 110.34350942703117 118.27599006163325 l 31.03052828109348 54.82797018489977 a84.0,84.0 0 0,0 -1.2610232473756222,0.6994683382674252 l -30.084760845561767 -55.352571438600336" fill="#4dd2ff" stroke="none" /><path d="M 104.64783097203109 120.47920084513623 l 2.5541732605982546 11.25415866279019 a32.540359104135824,32.540359104135824 0 0,0 -0.545806545389824,0.11895599620141319 l -2.3606042985892945 -11.296346117125323" fill="#ff6809" stroke="none" /><path d="M 103.58742460773223 120.69131181640829 l 2.1078104677101455 12.157290648917613 a33.33866203808371,33.33866203808371 0 0,0 -0.5647291478598518,0.09292596637569134 l -1.8988038167972212 -12.191682613788975" fill="#ff730a" stroke="none" /><path d="M 101.80034050326958 120.92268563240118 l 0.996549305334499 11.581413513074413 a32.62420962813323,32.62420962813323 0 0,0 -0.558388212443017,0.0432227791369589 l -0.7975920981162463 -11.596814059206425" fill="#ff6909" stroke="none" /><line stroke="#e1ed5e" stroke-width="0.3" x1="101.45913802915013" x2="101.54496967792366" y1="184.9874750549273" y2="189.98673829345242" /><path d="M 101.47630435890484 185.9873277026323 a86.0,86.0 0 0,1 -42.54439059252881,-10.42667462771756" fill="none" id="id163" stroke="none" /><text fill="#e1ed5e" style="font-size:6.75px; font-family:Arial;" text-anchor="middle"><textPath startOffset="22.145653131862474" xlink:href="#id163">July</textPath></text><path d="M 100.36049292484886 120.99690560180557 l 0.19825940938729844 11.54761665661038 a32.549318475193076,32.549318475193076 0 0,0 -0.5587523342361492,0.00479621677712973 l -1.414383590297859e-15 -11.549318475193076" fill="#ff6809" stroke="none" /><path d="M 99.63950707515114 120.99690560180557 l -0.10540787988847171 6.139480558828401 a27.140385358703025,27.140385358703025 0 0,0 -0.46576350163170893,-0.011996415625148369 l 0.21078469559092455 -6.136766425853205" fill="#ff1702" stroke="none" /><path d="M 99.27912038922189 120.98762331915562 l -0.3957112215218301 11.520700455792877 a32.52749436620745,32.52749436620745 0 0,0 -0.5578840734718701,-0.023957942542312368 l 0.5934210555945388 -11.512209944824736" fill="#ff6709" stroke="none" /><path d="M 97.84075906011543 120.88869738790638 l -0.7376777968690893 7.136363517356997 a28.174388669695666,28.174388669695666 0 0,0 -0.480660569271294,-0.053859019348854745 l 0.8600742677411826 -7.122648737501171" fill="#ff2703" stroke="none" /><path d="M 97.12497278360702 120.80226474461374 l -1.5882796085281248 11.492000046707536 a32.60123688183257,32.60123688183257 0 0,0 -0.5537163200898324,-0.08137723078450251 l 1.785321034225642 -11.463041742624153" fill="#ff6909" stroke="none" /><line stroke="#e1ed5e" stroke-width="0.3" x1="58.13341422392154" x2="55.67067388415222" y1="173.97424548756322" y2="178.32567169271397" /><path d="M 57.64086615596768 174.84453072859336 a86.0,86.0 0 0,1 -31.369924170532247,-30.572349798747897" fill="none" id="id164" stroke="none" /><text fill="#e1ed5e" style="font-size:6.75px; font-family:Arial;" text-anchor="middle"><textPath startOffset="22.145653131862474" xlink:href="#id164">August</textPath></text><path d="M 85.34317274990678 115.03919595460226 l -9.622621453784785 9.873657318265026 a34.78709369234023,34.78709369234023 0 0,0 -0.42408462192548163,-0.42045998881735536 l 9.790697995840228 -9.70701731921901" fill="#ff880c" stroke="none" /><path d="M 84.83555147118756 114.52719865689866 l -10.727277738121517 10.276489412280776 a35.85532639532085,35.85532639532085 0 0,0 -0.42197308324219496,-0.44812079137760463 l 10.902106655099965 -10.090827160958682" fill="#ff970d" stroke="none" /><path d="M 82.18462484594161 111.11811171558189 l -15.182092268864656 9.474748438460882 a38.89599909567602,38.89599909567602 0 0,0 -0.3486415754438017,-0.5694798120558653 l 15.342501808763863 -9.21273151028046" fill="#ffc111" stroke="none" /><line stroke="#e1ed5e" stroke-width="0.3" x1="26.387840678322732" x2="22.057713659400548" y1="142.50000000000003" y2="145.00000000000006" /><path d="M 25.521815274538298 143.00000000000003 a86.0,86.0 0 0,1 -11.493303480769221,-40.785679425670985" fill="none" id="id165" stroke="none" /><text fill="#e1ed5e" style="font-size:6.75px; font-family:Arial;" text-anchor="middle"><textPath startOffset="21.40746469413373" xlink:href="#id165">September</textPath></text><path d="M 80.9802524753101 108.90220220490708 l -25.54888663641706 11.958168984755813 a49.20892436496766,49.20892436496766 0 0,0 -0.3515287201198901,-0.7681536942952591 l 25.750399821392005 -11.517826308245866" fill="#b9ff1f" stroke="none" /><path d="M 80.68587082218212 108.24405325689762 l -10.575872811160457 4.514211222813872 a32.49900816079464,32.49900816079464 0 0,0 -0.21460821476666958,-0.5149815900626167 l 10.651806870463611 -4.331997123309973" fill="#ff6709" stroke="none" /><path d="M 80.05021161711548 106.5578916946017 l -11.355836412696412 3.73288898442489 a32.95363881008467,32.95363881008467 0 0,0 -0.17204197891034848,-0.5389190485682017 l 11.418243107384017 -3.537400902165297" fill="#ff6e0a" stroke="none" /><path d="M 79.83685265289637 105.86919833188381 l -13.960052169263802 4.063567730492412 a35.539451133686796,35.539451133686796 0 0,0 -0.1654810058425642,-0.5872337110583817 l 14.027751667180942 -3.823326095531035" fill="#ff930d" stroke="none" /><path d="M 79.48165901384964 104.47187691870673 l -9.389094911544024 2.046309535981548 a30.609499777565475,30.609499777565475 0 0,0 -0.10748640876755776,-0.5143613764707518 l 9.422839031135949 -1.8848317082253871" fill="#ff4b07" stroke="none" /><path d="M 79.2786578344484 103.40968896794605 l -50.100617479308674 8.244037540699342 a71.77436387371554,71.77436387371554 0 0,0 -0.18961593383041786,-1.2174703164842795 l 50.23475490527736 -7.382779042283613" fill="#3dffac" stroke="none" /><line stroke="#e1ed5e" stroke-width="0.3" x1="15.003131293944662" x2="10.003315487706104" y1="100.72959589197737" y2="100.7725132973878" /><path d="M 14.003168132696942 100.73817937305945 a86.0,86.0 0 0,1 10.791469493833604,-42.45332614584628" fill="none" id="id166" stroke="none" /><text fill="#e1ed5e" style="font-size:6.75px; font-family:Arial;" text-anchor="middle"><textPath startOffset="22.145653131862435" xlink:href="#id166">October</textPath></text><path d="M 79.2786578344484 96.59031103205396 l -6.868377113487707 -1.130188840300378 a27.960742129099543,27.960742129099543 0 0,0 0.08199844795586515,-0.47294525756985045 l 6.8479638480396074 1.247927130790821" fill="#ff2403" stroke="none" /><line stroke="#e1ed5e" stroke-width="0.3" x1="26.387840678322718" x2="22.05771365940052" y1="57.49999999999999" y2="54.99999999999999" /><path d="M 25.521815274538284 56.99999999999999 a86.0,86.0 0 0,1 29.574782752854787,-30.34633250058573" fill="none" id="id167" stroke="none" /><text fill="#e1ed5e" style="font-size:6.75px; font-family:Arial;" text-anchor="middle"><textPath startOffset="21.40746469413373" xlink:href="#id167">November</textPath></text><path d="M 82.78059297857968 87.97951657250589 l -9.575790619103499 -6.684645545511529 a32.678195581939775,32.678195581939775 0 0,0 0.32504674592151356,-0.4572189548578212 l 9.459628774652012 6.84804172707887" fill="#ff6a09" stroke="none" /><path d="M 85.60350026404147 84.71141617570332 l -3.1812800705922832 -3.3784091911127505 a25.640494752733026,25.640494752733026 0 0,0 0.323033883826379,-0.2989953402538341 l 3.1228164154519513 3.43252227749895" fill="#ff0000" stroke="none" /><path d="M 86.68645165197937 83.75963576809568 l -3.713877903950504 -4.530327174719332 a26.85805030666793,26.85805030666793 0 0,0 0.35906556825509917,-0.2892378048683656 l 3.635561565340159 4.593413273381097" fill="#ff1302" stroke="none" /><path d="M 88.12776184653039 82.6780497279521 l -3.1371353998759286 -4.577174302846255 a26.549066868924072,26.549066868924072 0 0,0 0.3781392594312586,-0.2544289695643126 l 3.058099852347681 4.630352946467677" fill="#ff0e01" stroke="none" /><line stroke="#e1ed5e" stroke-width="0.3" x1="56.869717070023135" x2="54.33264160355391" y1="26.7553504044142" y2="22.446841604673864" /><path d="M 56.362301976729285 25.89364864446614 a86.0,86.0 0 0,1 42.16139366436587,-11.88097634709845" fill="none" id="id168" stroke="none" /><text fill="#e1ed5e" style="font-size:6.75px; font-family:Arial;" text-anchor="middle"><textPath startOffset="22.145653131862474" xlink:href="#id168">December</textPath></text><path d="M 89.34428304082924 81.90426304109057 l -25.10320892828776 -42.63073684590374 a70.47272806832024,70.47272806832024 0 0,0 1.0477198339693048,-0.6049013281774849 l 24.367696626458056 43.0553850713574" fill="#3bff9d" stroke="none" /><path d="M 91.92203290615298 80.6158196554323 l -4.599561554942107 -11.037273320270153 a32.95731444949278,32.95731444949278 0 0,0 0.5240927681691397,-0.2131439662459323 l 4.409414325582526 11.114604543095377" fill="#ff6e0a" stroke="none" /><path d="M 92.25597844496254 80.48000691201159 l -5.9715584209473995 -15.05222813146576 a37.19348886733421,37.19348886733421 0 0,0 0.5954991719921849,-0.23035187250581096 l 5.712286986461685 15.152519892109611" fill="#ffaa0f" stroke="none" /></svg>