<?xml version="1.0" encoding="utf-8" ?>
<svg baseProfile="full" height="200mm" version="1.1" viewBox="0,0,200,200" width="200mm" xmlns="http://www.w3.org/2000/svg" xmlns:ev="http://www.w3.org/2001/xml-events" xmlns:xlink="http://www.w3.org/1999/xlink"><defs /><rect fill="#1a1a1a" height="200" width="200" x="0" y="0" /><text alignment-baseline="middle" fill="#e1ed5e" style="dominant-baseline: central; font-size:9.0px; font-family:Arial;" text-anchor="middle" x="100.0" y="100.0">2015</text><line stroke="#e1ed5e" stroke-width="0.3" x1="100.0" x2="100.0" y1="15.0" y2="10.0" /><path d="M 100.0 14.0 a86.0,86.0 0 0,1 42.46469731375804,11.215312516191453" fill="none" id="id49" stroke="none" /><text fill="#e1ed5e" style="font-size:6.75px; font-family:Arial;" text-anchor="middle"><textPath startOffset="22.20632615414155" xlink:href="#id49">January</textPath></text><path d="M 103.59715602781102 79.31037775812273 l 1.4001591536622413 -8.053240878018482 a29.174052501358922,29.174052501358922 0 0,0 0.49402073365158816,0.0902791313737663 l -1.5385750084167304 8.027946265293977" fill="#ff5307" stroke="none" /><path d="M 104.307194497241 79.44645832069477 l 1.6306381521613773 -7.781257439333789 a28.950279751082455,28.950279751082455 0 0,0 0.48685723485169335,0.10640813443485744 l -1.7643381111665986 7.752035806803061" fill="#ff5007" stroke="none" /><path d="M 105.01212808612495 79.60689891045804 l 3.615358253273004 -14.709992455701215 a36.14776199134037,36.14776199134037 0 0,0 0.602963796166468,0.15370889719178923 l -3.868030938124497 14.645580562340559" fill="#ffb310" stroke="none" /><path d="M 106.0581310904928 79.89281104454417 l 3.759746489081531 -12.478754908293771 a34.0328438079886,34.0328438079886 0 0,0 0.5594588328937679,0.1738265826861477 l -3.9739906946860173 12.412188190725102" fill="#ff970d" stroke="none" /><path d="M 107.76421540070413 80.48803036053334 l 5.2277039613750205 -13.137554242662867 a35.13945614890068,35.13945614890068 0 0,0 0.5600829898537418,0.22847191440770828 l -5.45307082081715 13.04562144207158" fill="#ffa50f" stroke="none" /><path d="M 108.09893153111575 80.62456947434976 l 8.783627568765581 -21.013459006037294 a43.775372064253716,43.775372064253716 0 0,0 0.6927270069392193,0.296589552424118 l -9.144038333495114 20.859149925650385" fill="#eaff1a" stroke="none" /><line stroke="#e1ed5e" stroke-width="0.3" x1="143.23703022742887" x2="145.7803849466894" y1="26.81831364943548" y2="22.513508569990506" /><path d="M 143.74570117128098 25.957352633546492 a86.0,86.0 0 0,1 28.547481713284135,27.462654790039103" fill="none" id="id50" stroke="none" /><text fill="#e1ed5e" style="font-size:6.75px; font-family:Arial;" text-anchor="middle"><textPath startOffset="19.985693538727396" xlink:href="#id50">February</textPath></text><line stroke="#e1ed5e" stroke-width="0.3" x1="172.23445277983987" x2="176.4835382374775" y1="55.19839476539836" y2="52.563006222186495" /><path d="M 173.08426987136738 54.67131705675599 a86.0,86.0 0 0,1 12.851231095245387,41.99856678651699" fill="none" id="id51" stroke="none" /><text fill="#e1ed5e" style="font-size:6.75px; font-family:Arial;" text-anchor="middle"><textPath startOffset="22.20632615414155" xlink:href="#id51">March</textPath></text><path d="M 119.97218684219823 93.5106431181261 l 11.421415362137575 -3.711042810015591 a33.00918680062229,33.00918680062229 0 0,0 0.17093181189707546,0.5419005550435131 l -11.483602657802855 3.5138920885456586" fill="#ff890c" stroke="none" /><path d="M 120.6074358757038 95.95851677861258 l 15.469772015931042 -3.03389632840184 a36.764465520796236,36.764465520796236 0 0,0 0.11644580047412856,0.6220581223766972 l -15.51970354031503 2.7671601285625798" fill="#ffbb11" stroke="none" /><path d="M 120.73433829027371 96.67025291283417 l 6.563548428619663 -1.054046478633955 a27.647644842645875,27.647644842645875 0 0,0 0.0714153234760416,0.4705377527157194 l -6.580719645535005 0.9409096135261534" fill="#ff3d05" stroke="none" /><path d="M 120.78858239683441 97.02765380044208 l 6.3429802623019125 -0.9069176972545693 a27.407487675957338,27.407487675957338 0 0,0 0.06275531729681312,0.46760000592306067 l -6.3576515786565615 0.7975993492668442" fill="#ff3a05" stroke="none" /><line stroke="#e1ed5e" stroke-width="0.3" x1="184.98032266829074" x2="189.97916517819016" y1="98.17113171792111" y2="98.06355123074" /><path d="M 185.9800911702706 98.14961562048488 a86.0,86.0 0 0,1 -9.607161424134198,41.387399972396054" fill="none" id="id52" stroke="none" /><text fill="#e1ed5e" style="font-size:6.75px; font-family:Arial;" text-anchor="middle"><textPath startOffset="21.466115282336823" xlink:href="#id52">April</textPath></text><path d="M 120.81339534386255 102.79330883721812 l 7.981309603239151 1.0711497225211668 a29.05286686285168,29.05286686285168 0 0,0 -0.07078654779648297,0.49508095042008543 l -7.961689004426066 -1.2083761449216617" fill="#ff5107" stroke="none" /><path d="M 120.76222939487914 103.15116336523771 l 7.697398756112122 1.1682637980037585 a28.785549942831437,28.785549942831437 0 0,0 -0.078568439165172,0.48924574568095797 l -7.676148562585661 -1.3005887733779213" fill="#ff4e07" stroke="none" /><path d="M 120.41448212921028 104.9243191809786 l 2.404922497836716 0.5801080776827147 a23.473899270866525,23.473899270866525 0 0,0 -0.09813060787426198,0.3919829988134598 l -2.3945805756673932 -0.6214189158935705" fill="#ff0000" stroke="none" /><path d="M 120.32669344350535 105.2749913415812 l 8.28944930904812 2.151199527519634 a29.564031133437048,29.564031133437048 0 0,0 -0.13206945865330083,0.4914795866934879 l -8.251191774053042 -2.29357004738867" fill="#ff5908" stroke="none" /><path d="M 120.23288151984713 105.62410040840565 l 8.574873886425625 2.3835434255554198 a29.899985473561884,29.899985473561884 0 0,0 -0.1421066051076259,0.4946917350147937 l -8.532574644431898 -2.5307926360747954" fill="#ff5d08" stroke="none" /><path d="M 120.02730092923936 106.31721596034902 l 7.138322637959914 2.2516426880471196 a28.485021367921874,28.485021367921874 0 0,0 -0.15152369603641228,0.4663419847832166 l -7.0985066909072545 -2.374183572808131" fill="#ff4906" stroke="none" /><path d="M 119.9155931802556 106.66101706037122 l 27.849064596209 9.314464937686962 a50.36545003842477,50.36545003842477 0 0,0 -0.2820685108661601,0.8198231259202682 l -27.68460525439961 -9.79246076669653" fill="#9dff22" stroke="none" /><path d="M 119.54520255179757 107.68017299344265 l 7.086834878688854 2.7847303040248 a28.61432541095762,28.61432541095762 0 0,0 -0.18408193132422088,0.45687625709740637 l -7.03785033310724 -2.90630592896502" fill="#ff4b07" stroke="none" /><path d="M 119.26925614724726 108.34839909993367 l 57.78528505445448 25.03545637940644 a83.97549717905943,83.97549717905943 0 0,0 -0.5860646559864288,1.3214210826987525 l -57.34577931373678 -26.026425798597877" fill="#4dd2ff" stroke="none" /><path d="M 118.97047184881838 109.00673069616215 l 5.669166799528327 2.691586115616601 a27.275674307885513,27.275674307885513 0 0,0 -0.20501792205416355,0.4223976437342172 l -5.621995620859448 -2.7887727153160937" fill="#ff3805" stroke="none" /><path d="M 118.81262510543309 109.33194174019688 l 7.002238124635225 3.473437538029175 a28.816399880039736,28.816399880039736 0 0,0 -0.22424830477937574,0.44246317977189514 l -6.941411150069579 -3.5934549295037645" fill="#ff4e07" stroke="none" /><path d="M 118.64920377521936 109.65438752849418 l 6.6797679001632675 3.458006501825223 a28.52177559933272,28.52177559933272 0 0,0 -0.2294610689752243,0.4340538678394957 l -6.61925432296315 -3.572475384750853" fill="#ff4a06" stroke="none" /><line stroke="#e1ed5e" stroke-width="0.3" x1="174.80103733775053" x2="179.2010983576182" y1="140.37084112569926" y2="142.7455964860345" /><path d="M 175.68104954172406 140.8457921977663 a86.0,86.0 0 0,1 -30.038265399797805,32.042727171017184" fill="none" id="id53" stroke="none" /><text fill="#e1ed5e" style="font-size:6.75px; font-family:Arial;" text-anchor="middle"><textPath startOffset="22.206326154141568" xlink:href="#id53">May</textPath></text><path d="M 118.12598468904814 110.60418214915192 l 6.583838996395931 3.851720563388514 a28.62775768026841,28.62775768026841 0 0,0 -0.2524956289648888,0.42319719766659647 l -6.516562491732815 -3.9644798549412146" fill="#ff4b07" stroke="none" /><path d="M 117.75023020441432 111.22182372390056 l 6.459207661848426 4.083557730947326 a28.641780378999457,28.641780378999457 0 0,0 -0.2670438715443199,0.4144580189034036 l -6.387958926927055 -4.194137349772182" fill="#ff4c07" stroke="none" /><path d="M 117.14729908036423 112.12312394758627 l 6.045635427670545 4.274258429159674 a28.40398492999194,28.40398492999194 0 0,0 -0.28569026639395934,0.39679879284438757 l -5.971165368900983 -4.377690827455192" fill="#ff4806" stroke="none" /><path d="M 116.71984013943494 112.70617746262583 l 15.790315934573464 11.999789159610918 a40.83252422635002,40.83252422635002 0 0,0 -0.43008933307841374,0.5559484396293906 l -15.581419784276981 -12.269815593353561" fill="#ffef16" stroke="none" /><path d="M 116.27256486870786 113.27417163493432 l 5.783781848390493 4.718058497477018 a28.464061123502837,28.464061123502837 0 0,0 -0.312974551080547,0.3769980084918037 l -5.701711297416402 -4.816917763082592" fill="#ff4906" stroke="none" /><path d="M 115.32070863581623 114.36230785411682 l 5.420155482497302 5.081092755384678 a28.429373395062886,28.429373395062886 0 0,0 -0.33775916240330267,0.3541391314365266 l -5.331889768715035 -5.1736390034037125" fill="#ff4906" stroke="none" /><path d="M 115.07121518719521 114.62390073753431 l 25.45338580183591 24.697927989009514 a56.46635723791494,56.46635723791494 0 0,0 -0.6828647995015101,0.691738436654158 l -25.024480377278866 -25.13240691964434" fill="#5aff2a" stroke="none" /><path d="M 114.29624159901734 115.38237550388516 l 5.071888546329044 5.457217100951216 a28.450186032126858,28.450186032126858 0 0,0 -0.3615889271298187,0.3303029117423757 l -4.977200069732361 -5.543712779280175" fill="#ff4906" stroke="none" /><path d="M 114.0293411484842 115.62618273729858 l 5.651996100821826 6.295315151808343 a29.460263162827314,29.460263162827314 0 0,0 -0.38025855312708096,0.335533961230791 l -5.542795194788157 -6.391672254811423" fill="#ff5708" stroke="none" /><path d="M 113.48314897796784 116.09983520530334 l 4.798116716110446 5.729291321442645 a28.47306517216172,28.47306517216172 0 0,0 -0.37846109625924446,0.3114477167211058 l -4.69878549130651 -5.811034157020929" fill="#ff4906" stroke="none" /><path d="M 112.63410532772338 116.77436683061366 l 4.470045025699731 5.934901844289019 a28.42996382448314,28.42996382448314 0 0,0 -0.3934368941833959,0.2910552085691496 l -4.367223161097771 -6.010967001597938" fill="#ff4906" stroke="none" /><path d="M 112.34349029814194 116.9893568818739 l 4.3568985513518514 5.996756395407733 a28.412398549230566,28.412398549230566 0 0,0 -0.39814249730021684,0.2840641004847589 l -4.25302872620275 -6.070864757736711" fill="#ff4806" stroke="none" /><path d="M 111.7513745106137 117.40417183066458 l 3.9763394941585717 5.889089463610286 a28.105818072763398,28.105818072763398 0 0,0 -0.40328543323500915,0.2672755946656304 l -3.8743793621835985 -5.956663079367235" fill="#ff4406" stroke="none" /><path d="M 111.1453310114006 117.79835938074945 l 16.60745925872885 26.521018351599913 a52.29172602200521,52.29172602200521 0 0,0 -0.7669971088675502,0.47115226918161907 l -16.148482949928987 -26.80295908760991" fill="#87ff25" stroke="none" /><line stroke="#e1ed5e" stroke-width="0.3" x1="143.8653032363475" x2="146.44561519142675" y1="172.8068346515853" y2="177.08958963109032" /><path d="M 144.38136562736335 173.6633856474863 a86.0,86.0 0 0,1 -40.68145358897372,12.25698825130547" fill="none" id="id54" stroke="none" /><text fill="#e1ed5e" style="font-size:6.75px; font-family:Arial;" text-anchor="middle"><textPath startOffset="21.466115282336833" xlink:href="#id54">June</textPath></text><path d="M 110.8373102113329 117.98757091392108 l 3.993605994612686 6.628514790988971 a28.7386108039212,28.7386108039212 0 0,0 -0.4259228106757683,0.2516427040437765 l -3.8789153129085356 -6.6962760673264965" fill="#ff4d07" stroke="none" /><path d="M 110.21172684928248 118.3499491758327 l 5.523560204773701 9.925554269439857 a32.35897640156698,32.35897640156698 0 0,0 -0.48904766386371806,0.2666677793226737 l -5.351889729041334 -10.019162700522301" fill="#ff800b" stroke="none" /><path d="M 109.89434966115114 118.52300852407294 l 6.35579502621512 11.89855316212325 a34.48968857191055,34.48968857191055 0 0,0 -0.5260648104100432,0.2752122454481339 l -6.150039313278581 -12.0061948265161" fill="#ff9d0e" stroke="none" /><path d="M 109.2508944713604 118.85261126421891 l 3.329219205827812 6.7846926256865485 a28.55749657925812,28.55749657925812 0 0,0 -0.44316792232413854,0.21274753398587504 l -3.2119386155034406 -6.840994436171983" fill="#ff4a06" stroke="none" /><path d="M 108.92500713936063 119.00905698771935 l 14.250719211957493 30.352102736300246 a54.53107720567562,54.53107720567562 0 0,0 -0.8531049565401048,0.39161864339174846 l -13.726146259649969 -30.592908450026066" fill="#6fff28" stroke="none" /><path d="M 107.59598834532513 119.57807347666477 l 2.731621401591752 7.040543255139007 a28.5518874997657,28.5518874997657 0 0,0 -0.4597258770082498,0.17382898950493603 l -2.6100253038232273 -7.086520494750574" fill="#ff4a06" stroke="none" /><path d="M 107.2578585660854 119.70592522655815 l 2.5931393655181294 7.0406732197464255 a28.503029465239642,28.503029465239642 0 0,0 -0.46185825665787433,0.1656059387078266 l -2.4715615482305204 -7.084266699494212" fill="#ff4a06" stroke="none" /><path d="M 106.57524785965236 119.94407469862006 l 10.313347934874356 31.282498545517644 a53.93872888980525,53.93872888980525 0 0,0 -0.8842834776041231,0.28311964477700374 l -9.773343112179292 -31.455391036954357" fill="#75ff27" stroke="none" /><path d="M 105.53697534728816 120.25689768951611 l 1.959647776189668 7.169326576323653 a28.432325542164158,28.432325542164158 0 0,0 -0.473208071908626,0.12497855271230565 l -1.8359492614695445 -7.2019964783395425" fill="#ff4906" stroke="none" /><path d="M 105.18746579009965 120.34920634021253 l 1.877479810580083 7.364911039604811 a28.60045031958164,28.60045031958164 0 0,0 -0.4780997209311482,0.11750527929645732 l -1.7504268049057237 -7.396137577215298" fill="#ff4b07" stroke="none" /><path d="M 104.83641907484287 120.43548508189849 l 2.213878061072427 9.354373843556525 a30.612781391164177,30.612781391164177 0 0,0 -0.5138280291155486,0.1169455865462604 l -2.0525298825640164 -9.39109616368047" fill="#ff6709" stroke="none" /><path d="M 104.48393922423573 120.51570834832081 l 6.706273584881977 30.68372386223349 a52.40804061779535,52.40804061779535 0 0,0 -0.8829720123967605,0.185035370173811 l -6.177110111055838 -30.79461521313384" fill="#86ff25" stroke="none" /><path d="M 101.98527174616119 120.90594882070398 l 0.5986821736627727 6.304436108892028 a27.33279835429514,27.33279835429514 0 0,0 -0.4687648875868587,0.040447006960773316 l -0.4900729683343723 -6.313807368131464" fill="#ff3905" stroke="none" /><path d="M 101.62511606390274 120.93702456842531 l 1.3012983387087158 16.765150436680525 a37.815577496204384,37.815577496204384 0 0,0 -0.6494145460848361,0.044787429304919774 l -1.0125210318449493 -16.785066210501732" fill="#ffc912" stroke="none" /><line stroke="#e1ed5e" stroke-width="0.3" x1="102.19456741930631" x2="102.32365962044197" y1="184.97166512339345" y2="189.96999836594603" /><path d="M 102.22038585953345 185.97133177190398 a86.0,86.0 0 0,1 -42.740103519485714,-10.115201625700543" fill="none" id="id55" stroke="none" /><text fill="#e1ed5e" style="font-size:6.75px; font-family:Arial;" text-anchor="middle"><textPath startOffset="22.20632615414155" xlink:href="#id55">July</textPath></text><path d="M 100.18074693466247 120.99922214144158 l 0.06395856871271641 7.4307218252698615 a28.430997075968584,28.430997075968584 0 0,0 -0.4894110067503386,0.0 l 0.0639585687127113 -7.4307218252698615" fill="#ff4906" stroke="none" /><path d="M 98.37488393609728 120.93702456842531 l -0.846087797229253 10.90048975030878 a31.933276789563457,31.933276789563457 0 0,0 -0.5476643375663532,-0.04725478349657558 l 1.033596452537148 -10.884310714533541" fill="#ff7a0b" stroke="none" /><path d="M 98.01472825383883 120.90594882070398 l -0.9512659669158549 10.017327682054157 a31.06239339468801,31.06239339468801 0 0,0 -0.5318582921973113,-0.055129286623601344 l 1.1235568557187594 -9.999469026974795" fill="#ff6e0a" stroke="none" /><path d="M 97.65516085044442 120.86867818915974 l -3.699150663011858 32.92182526645479 a54.12899477048227,54.12899477048227 0 0,0 -0.9250196114724211,-0.11200699277998467 l 4.265297697535669 -32.85327274494945" fill="#73ff27" stroke="none" /><path d="M 96.93821686468263 120.77559828337769 l -4.274012755088627 29.001130430666436 a50.314377893572754,50.314377893572754 0 0,0 -0.8557376823063156,-0.1336486268419453 l 4.77258630100346 -28.923263496477386" fill="#9dff22" stroke="none" /><path d="M 95.16358092515715 120.4354850818985 l -1.7536563119354134 7.409783322487976 a28.614473018312683,28.614473018312683 0 0,0 -0.4783341315182237,-0.11756289171557903 l 1.8809437281968475 -7.378499172458367" fill="#ff4b07" stroke="none" /><path d="M 94.81253420990036 120.34920634021253 l -1.875292073137907 7.35632906096046 a28.59159387827782,28.59159387827782 0 0,0 -0.47585882455764833,-0.12567864057922862 l 2.0016413405070446 -7.3229590710776495" fill="#ff4b07" stroke="none" /><path d="M 94.46302465271185 120.25689768951611 l -1.9517861450570337 7.140564978603259 a28.402508856441305,28.402508856441305 0 0,0 -0.47049274184707596,-0.1329659484709561 l 2.0744100550087237 -7.105910236793782" fill="#ff4806" stroke="none" /><path d="M 93.76903079525671 120.05430185196036 l -1.9277247114401037 6.2043595434998995 a27.4969377331259,27.4969377331259 0 0,0 -0.45079089223232155,-0.14432900818560804 l 2.0342369487633656 -6.170257688654585" fill="#ff3b05" stroke="none" /><path d="M 93.08242187328487 119.8279376855182 l -5.177535132895869 14.840431448569616 a36.717673989241064,36.717673989241064 0 0,0 -0.5949669637006384,-0.21333398527240402 l 5.4322216572262345 -14.749109922257254" fill="#ffba11" stroke="none" /><path d="M 92.40401165467489 119.57807347666478 l -2.573955985874995 6.634172819416684 a28.116002980262785,28.116002980262785 0 0,0 -0.4496939441435512,-0.17894250100002657 l 2.6877710060604048 -6.588883474010591" fill="#ff4406" stroke="none" /><path d="M 92.06813273071674 119.44442032107085 l -7.0811774409495785 17.35901343976352 a39.74775777398737,39.74775777398737 0 0,0 -0.6312862685050669,-0.2638777114339512 l 7.378935168952108 -17.234550685309596" fill="#ffe215" stroke="none" /><path d="M 90.10565033884886 118.52300852407294 l -3.5959769515530207 6.731954500002681 a28.63218590092032,28.63218590092032 0 0,0 -0.4327239357756403,-0.2359555919384044 l 3.711323699197301 -6.669058256304511" fill="#ff4b07" stroke="none" /><line stroke="#e1ed5e" stroke-width="0.3" x1="58.666819895761336" x2="56.23545636021788" y1="174.27360380694188" y2="178.64263932499728" /><path d="M 58.180547188652646 175.14741091055294 a86.0,86.0 0 0,1 -31.652253787137756,-30.449443065178592" fill="none" id="id56" stroke="none" /><text fill="#e1ed5e" style="font-size:6.75px; font-family:Arial;" text-anchor="middle"><textPath startOffset="22.20632615414155" xlink:href="#id56">August</textPath></text><path d="M 88.8546689885994 117.79835938074946 l -3.3066386524634566 5.28048408958164 a27.230358849880975,27.230358849880975 0 0,0 -0.39512313706434954,-0.25218628067866095 l 3.3970435915747292 -5.222783380079175" fill="#ff3705" stroke="none" /><path d="M 88.24862548938628 117.40417183066458 l -4.021025818760562 5.955271378853599 a28.185673651852824,28.185673651852824 0 0,0 -0.3997575642604934,-0.27495689788244937 l 4.122940267643946 -5.885173691606049" fill="#ff4506" stroke="none" /><path d="M 87.95078237400918 117.19931262002967 l -4.247523680755924 6.063006737360089 a28.40280407115143,28.40280407115143 0 0,0 -0.3980080500286783,-0.28396817592631485 l 4.351259058633489 -5.988994299589555" fill="#ff4806" stroke="none" /><path d="M 86.79598089348748 116.32954008644616 l -4.68987572976812 5.800015367436627 a28.45889486607561,28.45889486607561 0 0,0 -0.3782727459870429,-0.31129271726989943 l 4.789018604299852 -5.718427531309547" fill="#ff4906" stroke="none" /><path d="M 84.19399662182784 113.82643327865904 l -5.516628772725481 4.825717028161241 a28.329443215684805,28.329443215684805 0 0,0 -0.31790692826025757,-0.3697975787343916 l 5.598878210556517 -4.730042350265319" fill="#ff4706" stroke="none" /><path d="M 83.06392112726016 112.41649034213515 l -5.6232045161637885 4.122587352801055 a27.972528631140932,27.972528631140932 0 0,0 -0.28135063358327866,-0.39077142242536306 l 5.693334942122675 -4.025182324924554" fill="#ff4206" stroke="none" /><path d="M 82.6465618267979 111.8261652097733 l -5.942180751385026 4.049526703056053 a28.19083990928005,28.19083990928005 0 0,0 -0.2698224417918351,-0.40334794048914197 l 6.011006298587591 -3.9466418483610894" fill="#ff4506" stroke="none" /><path d="M 82.44556493220864 111.52570212397912 l -7.974244684678959 5.23564378713425 a30.53942053569755,30.53942053569755 0 0,0 -0.28473666743679804,-0.4419176310339923 l 8.063186215492802 -5.097604556178809" fill="#ff6609" stroke="none" /><path d="M 82.24976979558568 111.22182372390057 l -20.228520133636014 12.788616514876736 a44.93202329853236,44.93202329853236 0 0,0 -0.40767329760160304,-0.6572991617376459 l 20.445658070905573 -12.438521021773827" fill="#dcff1b" stroke="none" /><path d="M 82.05923443525364 110.91462005526583 l -6.030430662534928 3.6687319286156814 a28.058731326498098,28.058731326498098 0 0,0 -0.24747684025297936,-0.41478541910524996 l 6.09268837848614 -3.5643844156243203" fill="#ff4306" stroke="none" /><line stroke="#e1ed5e" stroke-width="0.3" x1="26.63291911575756" x2="22.317208475507996" y1="142.92168965132927" y2="145.44649492493687" /><path d="M 25.769776987707644 143.4266507060508 a86.0,86.0 0 0,1 -11.730757126820373,-40.83630448921669" fill="none" id="id57" stroke="none" /><text fill="#e1ed5e" style="font-size:6.75px; font-family:Arial;" text-anchor="middle"><textPath startOffset="21.46611528233685" xlink:href="#id57">September</textPath></text><path d="M 81.87401531095188 110.60418214915194 l -12.369860828239041 7.236696909578746 a35.33119810312834,35.33119810312834 0 0,0 -0.3025831167805975,-0.5275791689137941 l 12.492595941172016 -7.022697894806645" fill="#ffa80f" stroke="none" /><path d="M 81.69416730710424 110.29060199501025 l -11.316163716533685 6.361367924138017 a33.98162405578152,33.98162405578152 0 0,0 -0.28224747049895865,-0.5123611432753422 l 11.423987596484162 -6.165636262464853" fill="#ff960d" stroke="none" /><path d="M 81.51974371655577 109.97397251340807 l -15.638731994168234 8.44037445487843 a38.77103990553129,38.77103990553129 0 0,0 -0.3119176164548743,-0.5900305811097342 l 15.781702118847996 -8.16992885868257" fill="#ffd513" stroke="none" /><path d="M 81.18737489456691 109.33194174019688 l -13.383115880881636 6.63865127821118 a35.939192798635446,35.939192798635446 0 0,0 -0.2701373591981119,-0.556562971990912 l 13.495406496694468 -6.407299350254983" fill="#ffb010" stroke="none" /><path d="M 81.02952815118164 109.00673069616217 l -7.751968225077118 3.6804508988965794 a29.581301193979495,29.581301193979495 0 0,0 -0.21442975755381052,-0.46186262120413085 l 7.814172599470754 -3.546468210413621" fill="#ff5908" stroke="none" /><path d="M 80.87730276802145 108.67885076344099 l -28.610253692382464 12.98478551891412 a52.41896356207006,52.41896356207006 0 0,0 -0.3658317351984549,-0.8248539861149911 l 28.8295265123122 -12.490383196306432" fill="#86ff25" stroke="none" /><path d="M 80.73074385275274 108.34839909993369 l -20.913477997884076 9.060757694009913 a43.79190408802084,43.79190408802084 0 0,0 -0.2937165105961121,-0.6942590685945913 l 21.066345489672493 -8.699424099749162" fill="#eaff1a" stroke="none" /><path d="M 80.58989483394504 108.01547362559985 l -13.647849572977597 5.635929190619119 a35.765754156435676,35.765754156435676 0 0,0 -0.23008856598321079,-0.5710609513443664 l 13.742840753218195 -5.400168871431947" fill="#ffae10" stroke="none" /><path d="M 80.20201598880116 107.00284435728193 l -17.148916821981306 6.065829497204297 a39.190097186556955,39.190097186556955 0 0,0 -0.21948165549357543,-0.6379164279499293 l 17.25078930841811 -5.769740366165071" fill="#ffda14" stroke="none" /><path d="M 80.0844068197444 106.66101706037122 l -37.869621192773984 12.66596433014835 a60.93162733594496,60.93162733594496 0 0,0 -0.32412071102929435,-0.997540976392401 l 38.08203415481953 -12.012224453778146" fill="#30ff32" stroke="none" /><path d="M 79.97269907076064 106.31721596034903 l -8.310376401269272 2.6213438657607506 a29.7140002061817,29.7140002061817 0 0,0 -0.14966408112196888,-0.4891108766123764 l 8.35426725489737 -2.4779060165963265" fill="#ff5b08" stroke="none" /><path d="M 79.86692584326677 105.97154293290107 l -17.007128630364466 5.0443761340653275 a38.73945193154768,38.73945193154768 0 0,0 -0.1841182164650141,-0.6409396655554895 l 17.091439483715586 -4.750878993005242" fill="#ffd513" stroke="none" /><path d="M 79.58551787078972 104.9243191809786 l -10.140995685537842 2.4461800819851134 a31.431854604412287,31.431854604412287 0 0,0 -0.12234390510084449,-0.527054341136957 l 10.18160015656924 -2.271257083499582" fill="#ff730a" stroke="none" /><path d="M 79.50377843672027 104.57218783832718 l -61.160625643010725 13.643386313233641 a83.6638980525201,83.6638980525201 0 0,0 -0.301452822390682,-1.40828722739718 l 61.38641250412584 -12.588585266420298" fill="#4dd5ff" stroke="none" /><path d="M 79.35854240842038 103.8639653848113 l -7.438475070261306 1.3924409194337288 a28.56768148675751,28.56768148675751 0 0,0 -0.0863200487836028,-0.4841286750553765 l 7.4613415613840965 -1.2641934936451387" fill="#ff4b06" stroke="none" /><path d="M 79.1416061653843 102.43462659150553 l -3.543759048868548 0.4136334792924232 a24.567817379243124,24.567817379243124 0 0,0 -0.04541267275260368,-0.42046494901728343 l 3.5503540231222037 -0.3525722083903577" fill="#ff1001" stroke="none" /><line stroke="#e1ed5e" stroke-width="0.3" x1="15.007084014347285" x2="10.007500721073583" y1="101.09737516637583" y2="101.16192664675087" /><path d="M 14.007167355692545 101.11028546245083 a86.0,86.0 0 0,1 10.666146001902534,-42.60595125391555" fill="none" id="id58" stroke="none" /><text fill="#e1ed5e" style="font-size:6.75px; font-family:Arial;" text-anchor="middle"><textPath startOffset="22.20632615414155" xlink:href="#id58">October</textPath></text><path d="M 79.08570108090925 98.10471618934814 l -7.9841338697516715 -0.723533680184932 a29.01685066821615,29.01685066821615 0 0,0 0.04936025283420117,-0.49705100986918344 l 7.970496491235242 0.8608602207585457" fill="#ff5107" stroke="none" /><path d="M 79.12142395522702 97.74499172005258 l -7.689903081100435 -0.830554491967665 a28.734625405334484,28.734625405334484 0 0,0 0.057345619395794,-0.4913022466035645 l 7.6744671087010525 0.9628004768960912" fill="#ff4d07" stroke="none" /><path d="M 79.32604984820605 96.31383870115002 l -7.425625944851106 -1.3239876645088713 a28.542735843751757,28.542735843751757 0 0,0 0.09040473391805683,-0.4829457035466577 l 7.4017354870231875 1.4516114455181017" fill="#ff4a06" stroke="none" /><path d="M 79.3925641242962 95.95851677861259 l -7.249355335705214 -1.421726998537964 a28.387452906224812,28.387452906224812 0 0,0 0.09816746748714188,-0.47869943493377026 l 7.223808572303078 1.5463020896351365" fill="#ff4806" stroke="none" /><path d="M 79.46518482838121 95.60439243477599 l -4.344561981024669 -0.9299810761272701 a25.44298138741542,25.44298138741542 0 0,0 0.09535740221867994,-0.4274685364387727 l 4.3279101918039515 1.004627782116002" fill="#ff1d03" stroke="none" /><path d="M 79.62865764111835 94.90015583598534 l -7.299323720000864 -1.8273421956639158 a28.524580139078928,28.524580139078928 0 0,0 0.12333983373751167,-0.4752786928753145 l 7.266787554393044 1.952717314088094" fill="#ff4a06" stroke="none" /><path d="M 79.71946130924805 94.55025226153421 l -11.604736277694434 -3.118402634625098 a33.01641956102041,33.01641956102041 0 0,0 0.15221077152563636,-0.5475831302229108 l 11.549338735602436 3.317697068266951" fill="#ff890c" stroke="none" /><path d="M 80.14247586403 93.16781622104843 l -18.67651676809624 -6.425846144593949 a40.75104496635489,40.75104496635489 0 0,0 0.23392442497500002,-0.6613358500061738 l 18.563139262311427 6.746379621026734" fill="#ffee16" stroke="none" /><path d="M 80.65960295795068 91.81776055985345 l -29.976192554154355 -12.681869169943349 a53.548455043017,53.548455043017 0 0,0 0.36644811729776644,-0.8458127782778462 l 29.75345372701391 13.195981092807795" fill="#79ff26" stroke="none" /><path d="M 81.10775173730289 90.83032412892265 l -6.6975040302247715 -3.2507481506929814 a28.444724559989503,28.444724559989503 0 0,0 0.21758858023145025,-0.4386453003114617 l 6.640555437039908 3.365553039503405" fill="#ff4906" stroke="none" /><path d="M 81.6062741919709 89.86733742301443 l -27.445915375232843 -15.119296792623722 a52.334827369683794,52.334827369683794 0 0,0 0.4414626077532973,-0.7853127194716061 l 27.181595126187116 15.589493022030114" fill="#87ff25" stroke="none" /><line stroke="#e1ed5e" stroke-width="0.3" x1="26.266209847984243" x2="21.928928074336255" y1="57.711370442889674" y2="55.22380399835377" /><path d="M 25.398753493254645 57.213857153982495 a86.0,86.0 0 0,1 29.58750427330803,-30.492523968695096" fill="none" id="id59" stroke="none" /><text fill="#e1ed5e" style="font-size:6.75px; font-family:Arial;" text-anchor="middle"><textPath startOffset="21.46611528233685" xlink:href="#id59">November</textPath></text><path d="M 81.78341655067845 89.55222093294921 l -11.702868461470423 -6.711960257330983 a34.49101703810612,34.49101703810612 0 0,0 0.29980959418978376,-0.512471781178181 l 11.585599192810314 6.912411450863056" fill="#ff9d0e" stroke="none" /><path d="M 82.34701348167596 88.62581576622439 l -10.162271530880906 -6.547761677941056 a33.08904237971172,33.08904237971172 0 0,0 0.3126179686151988,-0.47613861368696725 l 10.048056926907787 6.72171835560569" fill="#ff8a0c" stroke="none" /><path d="M 82.95767976084542 87.72973835380427 l -6.083970328295782 -4.3803840514842864 a28.496829956326966,28.496829956326966 0 0,0 0.29003990411945507,-0.39561410326554 l 6.007667811662694 4.484460598421327" fill="#ff4a06" stroke="none" /><path d="M 83.39014120810768 87.1503855733568 l -30.523662689348 -23.613523833115778 a59.591352551967155,59.591352551967155 0 0,0 0.6346363252444526,-0.8059236847325778 l 30.112672283509575 24.135439911801402" fill="#3aff2e" stroke="none" /><path d="M 83.84228863543731 86.58626213691792 l -7.393263676479602 -6.137707170982623 a30.608943599932523,30.608943599932523 0 0,0 0.34003531782073687,-0.4024945636394532 l 7.286517745171741 6.264060684251192" fill="#ff6709" stroke="none" /><path d="M 84.80347519578584 85.50635884689758 l -45.58957441264248 -43.480923459307235 a84.0,84.0 0 0,0 1.0069429451875265,-1.0377432177995054 l 44.83436720375183 44.259230872656865" fill="#4dd2ff" stroke="none" /><line stroke="#e1ed5e" stroke-width="0.3" x1="56.762969772571076" x2="54.21961505331055" y1="26.818313649435495" y2="22.513508569990535" /><path d="M 56.25429882871897 25.957352633546506 a86.0,86.0 0 0,1 42.265352541879196,-11.944610805530505" fill="none" id="id60" stroke="none" /><text fill="#e1ed5e" style="font-size:6.75px; font-family:Arial;" text-anchor="middle"><textPath startOffset="22.20632615414155" xlink:href="#id60">December</textPath></text><path d="M 97.83486435360386 79.11191278185805 l -1.0171482685132383 -9.812910235832518 a30.865485183033122,30.865485183033122 0 0,0 0.528938693216297,-0.05022910235261523 l 0.8480844482067048 9.828964882700314" fill="#ff6b09" stroke="none" /></svg>